<svg xmlns="http://www.w3.org/2000/svg" viewBox="0 0 20.88 23.25"><defs><style>.cls-1,.cls-3{opacity:0.4;}.cls-2,.cls-3{fill:#fff;}</style></defs><title>Save</title><g id="Layer_2" data-name="Layer 2"><g id="Layer_1-2" data-name="Layer 1"><g class="cls-1"><path class="cls-2" d="M20.43,11.18l-.56-1.05a3.91,3.91,0,0,1,.2,2.9l-2.43,7.45a2.27,2.27,0,0,1-2.86,1.46l-13.2-4.3A2.26,2.26,0,0,1,.4,16.76l.36.67A2.26,2.26,0,0,0,2.2,18.84l13.2,4.3a2.27,2.27,0,0,0,2.86-1.46l2.43-7.45A3.91,3.91,0,0,0,20.43,11.18Z"/><polygon class="cls-2" points="0.16 16.31 0.16 16.31 0.16 16.31 0.16 16.31"/></g><path class="cls-3" d="M7.35.13,5.13,6.85a1.08,1.08,0,0,0,.7,1.37l5,1.6a1.08,1.08,0,0,0,1.35-.66l2.43-6.66Z"/><path class="cls-3" d="M3.93,11.15l-1.06,3.4a1.34,1.34,0,0,0,.88,1.68l10.15,3.2a1.34,1.34,0,0,0,1.69-.9l1-3.38a1.34,1.34,0,0,0-.88-1.66L5.62,10.27A1.34,1.34,0,0,0,3.93,11.15Z"/><path class="cls-2" d="M8.43.42,6.9,5A.74.74,0,0,0,7.38,6l3.42,1.1a.74.74,0,0,0,.93-.45L13.39,2Z"/><path class="cls-2" d="M19.8,10l-3-5.61a3.91,3.91,0,0,0-2.24-1.88L12.14,9.15a1.08,1.08,0,0,1-1.35.66l-5-1.6a1.08,1.08,0,0,1-.7-1.37L7.35.14l-.08,0A2.27,2.27,0,0,0,4.41,1.57L.11,14.77a2.27,2.27,0,0,0,1.46,2.86l13.2,4.3a2.27,2.27,0,0,0,2.86-1.46L20.06,13A3.91,3.91,0,0,0,19.8,10Zm-3.21,5.18-1,3.38a1.34,1.34,0,0,1-1.69.9L3.74,16.23a1.34,1.34,0,0,1-.88-1.68l1.06-3.4a1.34,1.34,0,0,1,1.69-.88L15.7,13.49A1.34,1.34,0,0,1,16.58,15.15Z"/></g></g></svg>