<svg xmlns="http://www.w3.org/2000/svg" viewBox="0 0 96.17 101.47"><defs><style>.cls-1{fill:#fff;}.cls-2{opacity:0.4;}</style></defs><title>Seamless Sharing</title><g id="Layer_2" data-name="Layer 2"><g id="Layer_13" data-name="Layer 13"><circle class="cls-1" cx="16.17" cy="44.47" r="16.17"/><g class="cls-2"><path class="cls-1" d="M31.5,39.33h0c0,.08.06.16.09.24Z"/><path class="cls-1" d="M34.25,47.88h0l-.05-.15a16.06,16.06,0,0,0-.84-2.59l-1.75-5.41A16.17,16.17,0,0,1,1.21,50.6h0l1.56,4.55a16,16,0,0,0,1.06,3.08l0,.13h0A16.15,16.15,0,0,0,34.25,47.88Z"/></g><circle class="cls-1" cx="77.67" cy="78.3" r="16.17"/><g class="cls-2"><path class="cls-1" d="M93,73.17h0c0,.08.06.16.09.24Z"/><path class="cls-1" d="M95.75,81.71h0l-.05-.15A16.06,16.06,0,0,0,94.87,79l-1.75-5.41A16.17,16.17,0,0,1,62.71,84.43h0L64.27,89a16,16,0,0,0,1.06,3.08l0,.13h0A16.15,16.15,0,0,0,95.75,81.71Z"/></g><circle class="cls-1" cx="77.67" cy="16.17" r="16.17"/><g class="cls-2"><path class="cls-1" d="M93,11h0c0,.08.06.16.09.24Z"/><path class="cls-1" d="M95.75,19.57h0l-.05-.15a16.06,16.06,0,0,0-.84-2.59l-1.75-5.41A16.17,16.17,0,0,1,62.71,22.3h0l1.56,4.55a16,16,0,0,0,1.06,3.08l0,.13h0A16.15,16.15,0,0,0,95.75,19.57Z"/></g></g></g></svg>