<?xml version="1.0" encoding="utf-8"?>
<!-- Generator: Adobe Illustrator 16.0.0, SVG Export Plug-In . SVG Version: 6.00 Build 0)  -->
<!DOCTYPE svg PUBLIC "-//W3C//DTD SVG 1.1//EN" "http://www.w3.org/Graphics/SVG/1.1/DTD/svg11.dtd">
<svg version="1.1" id="Layer_1" xmlns="http://www.w3.org/2000/svg" xmlns:xlink="http://www.w3.org/1999/xlink" x="0px" y="0px"
	 width="147.489px" height="56.569px" viewBox="0 0 147.489 56.569" enable-background="new 0 0 147.489 56.569"
	 xml:space="preserve">
<g>
	<path fill-rule="evenodd" clip-rule="evenodd" fill="#1699C1" d="M21.149,18.494c0,3.141-1.949,4.042-5.524,4.042
		c-0.668,0-1.92-0.028-3.199-0.058v-7.969c0.696-0.087,2.296-0.087,3.199-0.087c3.635,0,5.524,0.959,5.524,3.868V18.494z
		 M24.58,33.47c0-0.088-0.029-0.174-0.086-0.262L19.2,24.368c2.647-0.698,4.567-2.617,4.567-5.874V18.29
		c0-4.71-3.548-6.252-8.143-6.252c-1.689,0-3.868,0.087-5.119,0.232c-0.523,0.059-0.698,0.232-0.698,0.64v20.357
		c0,0.319,0.233,0.581,0.523,0.581h1.571c0.319,0,0.524-0.29,0.524-0.581v-8.55c1.54,0.06,2.237,0.088,3.199,0.088
		c0.174,0,0.319,0,0.493,0c0.088,0,0.175,0,0.262,0l5.207,8.666c0.231,0.378,0.406,0.378,0.753,0.378h1.864
		C24.434,33.848,24.58,33.674,24.58,33.47z"/>
	<path fill-rule="evenodd" clip-rule="evenodd" fill="#1699C1" d="M34.09,30.795c-1.396,0.756-2.588,1.163-3.927,1.163
		c-1.686,0-2.675-0.552-2.675-2.646v-0.349c0-2.065,0.933-2.85,4.449-2.85h2.153V30.795z M36.648,33.267V23.119
		c0-3.431-1.628-5.468-5.671-5.468c-1.977,0-3.313,0.175-4.506,0.378c-0.409,0.059-0.612,0.233-0.612,0.553v1.018
		c0,0.378,0.264,0.465,0.524,0.465c0.057,0,0.088,0,0.145,0c1.164-0.116,2.561-0.232,4.449-0.232c2.27,0,3.112,0.843,3.112,3.287
		v1.163h-2.153c-5.174,0-7.005,1.571-7.005,4.711v0.349c0,3.636,2.267,4.711,4.739,4.711c1.628,0,3.081-0.609,4.478-1.425v0.64
		c0,0.319,0.262,0.581,0.583,0.581h1.337C36.389,33.848,36.648,33.586,36.648,33.267z"/>
	<path fill-rule="evenodd" clip-rule="evenodd" fill="#1699C1" d="M48.164,26.928c0,3.11-0.93,4.971-3.779,4.971
		c-0.93,0-2.443-0.115-3.404-0.291l0.002-11.515c0.813-0.146,2.178-0.291,3.401-0.291c2.877,0,3.779,1.978,3.779,5.031V26.928z
		 M50.725,26.928v-2.094c0-4.362-2.007-7.184-6.34-7.184c-1.773,0-3.811,0.292-5.351,0.669c-0.524,0.116-0.612,0.291-0.612,0.669
		v20.007c0,0.319,0.233,0.552,0.524,0.552h1.482c0.321,0,0.552-0.262,0.552-0.552l0.002-5.265c1.133,0.205,2.499,0.32,3.401,0.32
		C48.63,34.052,50.725,31.494,50.725,26.928z"/>
	<path fill-rule="evenodd" clip-rule="evenodd" fill="#1699C1" d="M54.852,33.267V18.436c0-0.321-0.259-0.582-0.58-0.582h-1.397
		c-0.319,0-0.581,0.261-0.581,0.582v14.831c0,0.319,0.262,0.581,0.581,0.581h1.397C54.593,33.848,54.852,33.586,54.852,33.267
		 M54.91,14.714v-2.326c0-0.32-0.259-0.582-0.581-0.582h-1.482c-0.319,0-0.581,0.262-0.581,0.582v2.326
		c0,0.319,0.262,0.581,0.581,0.581h1.482C54.65,15.295,54.91,15.033,54.91,14.714z"/>
	<path fill-rule="evenodd" clip-rule="evenodd" fill="#1699C1" d="M66.194,31.639c-0.988,0.088-2.414,0.174-3.402,0.174
		c-2.879,0-3.781-1.774-3.781-4.944v-2.092c0-3.112,0.933-4.886,3.781-4.886c0.931,0,2.442,0.027,3.402,0.203V31.639z
		 M68.753,32.889V12.532c0-0.319-0.233-0.551-0.523-0.551h-1.482c-0.322,0-0.553,0.26-0.553,0.551v5.41
		c-1.133-0.205-2.501-0.292-3.402-0.292c-4.248,0-6.34,2.559-6.34,7.126v2.092c0,4.361,2.006,7.184,6.34,7.184
		c1.773,0,3.549-0.146,5.351-0.494C68.667,33.47,68.753,33.267,68.753,32.889z"/>
	<path fill-rule="evenodd" clip-rule="evenodd" fill="#1699C1" d="M86.262,12.736c0-0.292-0.207-0.496-0.497-0.496H84.05
		c-0.233,0-0.435,0.204-0.495,0.437l-5.088,18.526c-0.117,0.405-0.263,0.609-0.552,0.609c-0.322,0-0.467-0.205-0.583-0.609
		l-5.059-18.526c-0.059-0.232-0.29-0.437-0.523-0.437h-1.686c-0.294,0-0.526,0.204-0.526,0.496c0,0.058,0,0.116,0.029,0.174
		l5.381,18.932c0.524,1.832,1.889,2.21,2.967,2.21c1.104,0,2.441-0.378,2.965-2.21L86.23,12.91
		C86.262,12.853,86.262,12.794,86.262,12.736"/>
	<path fill-rule="evenodd" clip-rule="evenodd" fill="#1699C1" d="M94.112,30.795c-1.396,0.756-2.588,1.163-3.926,1.163
		c-1.688,0-2.675-0.552-2.675-2.646v-0.349c0-2.065,0.928-2.85,4.448-2.85h2.152V30.795z M96.671,33.267V23.119
		c0-3.431-1.629-5.468-5.671-5.468c-1.978,0-3.313,0.175-4.508,0.378c-0.406,0.059-0.609,0.233-0.609,0.553v1.018
		c0,0.378,0.26,0.465,0.523,0.465c0.058,0,0.086,0,0.146,0c1.162-0.116,2.558-0.232,4.448-0.232c2.269,0,3.112,0.843,3.112,3.287
		v1.163H91.96c-5.175,0-7.01,1.571-7.01,4.711v0.349c0,3.636,2.271,4.711,4.741,4.711c1.631,0,3.083-0.609,4.478-1.425v0.64
		c0,0.319,0.264,0.581,0.584,0.581h1.339C96.409,33.848,96.671,33.586,96.671,33.267z"/>
	<path fill-rule="evenodd" clip-rule="evenodd" fill="#1699C1" d="M101.296,33.267V12.532c0-0.319-0.234-0.551-0.524-0.551h-1.513
		c-0.319,0-0.522,0.26-0.522,0.551v20.735c0,0.319,0.232,0.581,0.522,0.581h1.513C101.09,33.848,101.296,33.558,101.296,33.267"/>
	<path fill-rule="evenodd" clip-rule="evenodd" fill="#1699C1" d="M115.604,33.267V18.436c0-0.321-0.263-0.582-0.556-0.582h-1.424
		c-0.318,0-0.579,0.291-0.579,0.582v12.272c-1.341,0.668-2.705,1.134-3.928,1.134c-2.209,0-3.199-0.902-3.199-3.838v-9.568
		c0-0.321-0.261-0.582-0.581-0.582h-1.395c-0.322,0-0.583,0.261-0.583,0.582v9.568c0,3.869,1.57,6.048,5.06,6.048
		c1.716,0,3.024-0.437,4.626-1.339v0.554c0,0.319,0.23,0.581,0.551,0.581h1.453C115.369,33.848,115.604,33.586,115.604,33.267"/>
	<path fill-rule="evenodd" clip-rule="evenodd" fill="#1699C1" d="M127.117,24.717h-7.705v-0.261c0-3.14,1.395-4.565,3.895-4.565
		c2.562,0,3.811,1.278,3.811,4.565V24.717z M129.705,24.398c-0.019-4.097-2.17-6.748-6.398-6.748c-4.158,0-6.455,2.646-6.455,6.805
		v2.617c0,5.408,3.257,6.979,6.601,6.979c1.949,0,3.55-0.173,5.205-0.494c0.468-0.088,0.583-0.291,0.583-0.669v-0.99
		c0-0.291-0.23-0.406-0.464-0.406c-0.057,0-0.088,0-0.145,0c-1.339,0.203-3.49,0.319-5.18,0.319c-2.676,0-4.04-1.279-4.04-4.74
		v-0.407h9.744c0.34,0,0.539-0.25,0.549-0.612V24.398z"/>
	<path fill-rule="evenodd" clip-rule="evenodd" fill="#666767" d="M68.864,43.254v-0.512c0-0.068-0.042-0.119-0.111-0.119h-1.935
		c-1.063,0-1.233-0.28-1.233-1.043v-1.686h3.077c0.11,0,0.202-0.091,0.202-0.201v-0.381c0-0.11-0.092-0.2-0.202-0.2h-3.077V37.72
		c0-0.764,0.17-1.043,1.233-1.043h1.935c0.069,0,0.111-0.05,0.111-0.12v-0.503c0-0.06-0.042-0.13-0.102-0.139
		c-0.42-0.04-1.365-0.06-1.956-0.06c-1.404,0-2.136,0.532-2.136,1.866v3.86c0,1.333,0.732,1.864,2.136,1.864
		c0.593,0,1.573-0.009,1.956-0.049C68.822,43.383,68.864,43.315,68.864,43.254"/>
	<path fill-rule="evenodd" clip-rule="evenodd" fill="#666767" d="M73.717,43.174v-3.3c0-1.332-0.542-2.086-1.745-2.086
		c-0.591,0-1.044,0.151-1.594,0.463V38.06c0-0.108-0.08-0.2-0.19-0.2h-0.501c-0.111,0-0.192,0.092-0.192,0.2v5.114
		c0,0.11,0.092,0.203,0.192,0.203h0.49c0.11,0,0.201-0.104,0.201-0.203v-4.232c0.462-0.228,0.933-0.389,1.353-0.389
		c0.765,0,1.105,0.31,1.105,1.321v3.3c0,0.11,0.09,0.203,0.2,0.203h0.48C73.625,43.377,73.717,43.285,73.717,43.174"/>
	<path fill-rule="evenodd" clip-rule="evenodd" fill="#666767" d="M77.438,42.322c-0.482,0.262-0.894,0.4-1.354,0.4
		c-0.583,0-0.923-0.189-0.923-0.912v-0.119c0-0.712,0.319-0.982,1.534-0.982l0.743-0.003V42.322z M78.319,43.174v-3.499
		c0-1.184-0.562-1.887-1.958-1.887c-0.679,0-1.142,0.061-1.551,0.129C74.67,37.939,74.599,38,74.599,38.11v0.353
		c0,0.129,0.09,0.16,0.182,0.16c0.019,0,0.03,0,0.05,0c0.401-0.04,0.883-0.08,1.532-0.08c0.784,0,1.076,0.289,1.076,1.133v0.4
		h-0.743c-1.784,0-2.417,0.541-2.417,1.626v0.119c0,1.253,0.782,1.624,1.633,1.624c0.563,0,1.065-0.21,1.545-0.493v0.223
		c0,0.11,0.092,0.203,0.202,0.203h0.458C78.228,43.377,78.319,43.285,78.319,43.174z"/>
	<path fill-rule="evenodd" clip-rule="evenodd" fill="#666767" d="M82.439,40.968c0,1.093-0.309,1.706-1.304,1.706
		c-0.34,0-0.831-0.031-1.173-0.063v-3.979c0.333-0.061,0.864-0.072,1.173-0.072c0.983,0,1.304,0.61,1.304,1.685V40.968z
		 M83.322,40.968v-0.723c0-1.574-0.731-2.457-2.187-2.457c-0.32,0-0.791,0.031-1.173,0.101v-1.865c0-0.111-0.09-0.189-0.189-0.189
		h-0.513c-0.11,0-0.181,0.087-0.181,0.189v7.019c0,0.142,0.03,0.201,0.212,0.229c0.621,0.123,1.244,0.172,1.844,0.172
		C82.643,43.445,83.322,42.472,83.322,40.968z"/>
	<path fill-rule="evenodd" clip-rule="evenodd" fill="#666767" d="M84.888,43.174v-7.149c0-0.111-0.081-0.189-0.182-0.189h-0.521
		c-0.11,0-0.181,0.087-0.181,0.189v7.149c0,0.11,0.083,0.203,0.181,0.203h0.521C84.817,43.377,84.888,43.273,84.888,43.174z"/>
	<path fill-rule="evenodd" clip-rule="evenodd" fill="#666767" d="M86.743,43.174V38.06c0-0.108-0.092-0.2-0.202-0.2h-0.48
		c-0.11,0-0.2,0.092-0.2,0.2v5.114c0,0.11,0.09,0.203,0.2,0.203h0.482C86.651,43.377,86.743,43.285,86.743,43.174 M86.762,36.776
		v-0.803c0-0.111-0.089-0.199-0.2-0.199h-0.51c-0.111,0-0.201,0.088-0.201,0.199v0.803c0,0.11,0.09,0.203,0.201,0.203h0.51
		C86.673,36.979,86.762,36.887,86.762,36.776z"/>
	<path fill-rule="evenodd" clip-rule="evenodd" fill="#666767" d="M91.845,43.174v-3.3c0-1.332-0.54-2.086-1.743-2.086
		c-0.592,0-1.043,0.151-1.595,0.463V38.06c0-0.108-0.078-0.2-0.189-0.2h-0.502c-0.108,0-0.189,0.092-0.189,0.2v5.114
		c0,0.11,0.088,0.203,0.189,0.203h0.491c0.11,0,0.2-0.104,0.2-0.203v-4.232c0.46-0.228,0.935-0.389,1.354-0.389
		c0.762,0,1.103,0.31,1.103,1.321v3.3c0,0.11,0.09,0.203,0.201,0.203h0.481C91.757,43.377,91.845,43.285,91.845,43.174"/>
	<path fill-rule="evenodd" clip-rule="evenodd" fill="#666767" d="M96.18,43.827c0,0.551-0.262,0.872-1.405,0.872
		c-1.114,0-1.442-0.353-1.442-0.913v-0.09c0-0.521,0.199-0.772,0.488-1.021l1.135,0.289c0.903,0.231,1.225,0.392,1.225,0.782V43.827
		z M96.099,39.715c0,0.602-0.271,1.021-1.355,1.021c-1.152,0-1.352-0.58-1.352-1.021v-0.081c0-0.561,0.23-1.073,1.352-1.073
		c1.084,0,1.355,0.472,1.355,1.073V39.715z M97.172,38.34v-0.262c0-0.118-0.11-0.219-0.232-0.219h-2.196
		c-1.723,0-2.226,0.883-2.226,1.774v0.081c0,0.512,0.151,0.87,0.462,1.162c-0.282,0.159-0.412,0.45-0.412,0.723v0.01
		c0,0.311,0.142,0.643,0.462,0.782l0.069,0.029c-0.328,0.253-0.631,0.713-0.631,1.274v0.09c0,0.983,0.723,1.594,2.307,1.594
		c1.645,0,2.287-0.588,2.287-1.553v-0.081c0-0.942-0.944-1.224-1.925-1.474l-1.495-0.383c-0.229-0.059-0.31-0.147-0.31-0.318
		c0-0.15,0.08-0.262,0.249-0.342c0.292,0.122,0.632,0.201,1.162,0.201c1.545,0,2.228-0.611,2.228-1.715v-0.081
		c0-0.542-0.16-0.842-0.341-1.032l0.359-0.071C97.1,38.511,97.172,38.472,97.172,38.34z"/>
	<path fill-rule="evenodd" clip-rule="evenodd" fill="#666767" d="M105.665,43.174v-6.96c0-0.161-0.13-0.291-0.29-0.291h-0.653
		c-0.181,0-0.261,0.041-0.319,0.172l-1.655,3.439c-0.04,0.09-0.071,0.112-0.12,0.112c-0.05,0-0.08-0.022-0.121-0.112l-1.656-3.439
		c-0.058-0.131-0.137-0.172-0.319-0.172h-0.652c-0.16,0-0.289,0.13-0.289,0.291v6.96c0,0.11,0.09,0.203,0.2,0.203h0.491
		c0.11,0,0.198-0.093,0.198-0.203v-5.947c0-0.019,0-0.031,0.012-0.031s0.012,0,0.02,0.023l1.433,2.967
		c0.104,0.201,0.203,0.292,0.453,0.292h0.461c0.251,0,0.352-0.091,0.452-0.292l1.434-2.967c0.01-0.023,0.01-0.023,0.021-0.023
		c0.01,0,0.01,0.013,0.01,0.031v5.947c0,0.11,0.089,0.203,0.2,0.203h0.49C105.573,43.377,105.665,43.285,105.665,43.174"/>
	<path fill-rule="evenodd" clip-rule="evenodd" fill="#666767" d="M109.917,41c0,1.031-0.423,1.675-1.354,1.675
		c-0.942,0-1.345-0.652-1.345-1.675v-0.765c0-1.032,0.412-1.674,1.345-1.674c0.943,0,1.354,0.654,1.354,1.674V41z M110.798,41
		v-0.765c0-1.474-0.761-2.446-2.235-2.446c-1.474,0-2.224,0.973-2.224,2.446V41c0,1.473,0.75,2.445,2.224,2.445
		C110.037,43.445,110.798,42.472,110.798,41L110.798,41z"/>
	<path fill-rule="evenodd" clip-rule="evenodd" fill="#666767" d="M114.74,40.968c0,1.093-0.312,1.706-1.305,1.706
		c-0.341,0-0.83-0.031-1.175-0.063v-3.979c0.334-0.061,0.864-0.072,1.175-0.072c0.983,0,1.305,0.61,1.305,1.685V40.968z
		 M115.622,40.968v-0.723c0-1.574-0.732-2.457-2.187-2.457c-0.322,0-0.791,0.031-1.175,0.101v-1.865
		c0-0.111-0.087-0.189-0.188-0.189h-0.51c-0.111,0-0.184,0.087-0.184,0.189v7.019c0,0.142,0.031,0.201,0.212,0.229
		c0.621,0.123,1.244,0.172,1.845,0.172C114.941,43.445,115.622,42.472,115.622,40.968z"/>
	<path fill-rule="evenodd" clip-rule="evenodd" fill="#666767" d="M117.196,43.174V38.06c0-0.108-0.09-0.2-0.199-0.2h-0.481
		c-0.111,0-0.201,0.092-0.201,0.2v5.114c0,0.11,0.09,0.203,0.201,0.203h0.481C117.106,43.377,117.196,43.285,117.196,43.174
		 M117.216,36.776v-0.803c0-0.111-0.088-0.199-0.198-0.199h-0.513c-0.111,0-0.202,0.088-0.202,0.199v0.803
		c0,0.11,0.091,0.203,0.202,0.203h0.513C117.128,36.979,117.216,36.887,117.216,36.776z"/>
	<path fill-rule="evenodd" clip-rule="evenodd" fill="#666767" d="M119.062,43.174v-7.149c0-0.111-0.081-0.189-0.18-0.189h-0.521
		c-0.109,0-0.181,0.087-0.181,0.189v7.149c0,0.11,0.079,0.203,0.181,0.203h0.521C118.993,43.377,119.062,43.273,119.062,43.174"/>
	<path fill-rule="evenodd" clip-rule="evenodd" fill="#666767" d="M120.917,43.174V38.06c0-0.108-0.09-0.2-0.201-0.2h-0.481
		c-0.11,0-0.198,0.092-0.198,0.2v5.114c0,0.11,0.088,0.203,0.198,0.203h0.481C120.827,43.377,120.917,43.285,120.917,43.174
		 M120.938,36.776v-0.803c0-0.111-0.092-0.199-0.199-0.199h-0.514c-0.11,0-0.2,0.088-0.2,0.199v0.803c0,0.11,0.09,0.203,0.2,0.203
		h0.514C120.846,36.979,120.938,36.887,120.938,36.776z"/>
	<path fill-rule="evenodd" clip-rule="evenodd" fill="#666767" d="M124.729,43.223v-0.35c0-0.102-0.073-0.141-0.212-0.141h-0.563
		c-0.4,0-0.541-0.079-0.541-0.632v-3.499h1.082c0.11,0,0.202-0.091,0.202-0.202v-0.34c0-0.108-0.092-0.2-0.202-0.2h-1.082v-1.093
		c0-0.103-0.071-0.17-0.15-0.17c-0.01,0-0.022,0-0.028,0l-0.524,0.08c-0.111,0.019-0.181,0.1-0.181,0.201v0.982h-0.971
		c-0.112,0-0.19,0.07-0.19,0.181v0.272c0,0.108,0.078,0.168,0.19,0.179l0.971,0.11v3.499c0,1.104,0.44,1.344,1.364,1.344
		c0.192,0,0.453-0.019,0.65-0.049C124.676,43.377,124.729,43.315,124.729,43.223"/>
	<path fill-rule="evenodd" clip-rule="evenodd" fill="#666767" d="M129.34,38.031c0-0.101-0.059-0.171-0.16-0.171h-0.562
		c-0.09,0-0.169,0.07-0.19,0.15l-1.224,4.583h-0.159c-0.073,0-0.142-0.019-0.19-0.221l-1.185-4.35
		c-0.021-0.083-0.091-0.162-0.171-0.162h-0.553c-0.117,0-0.18,0.07-0.18,0.171c0,0.02,0,0.048,0.01,0.069l1.336,4.584
		c0.18,0.619,0.44,0.693,0.742,0.693h0.139l-0.1,0.408c-0.17,0.703-0.423,0.852-0.993,0.852c-0.22,0-0.671-0.038-0.892-0.059
		c-0.01,0-0.021,0-0.031,0c-0.11,0-0.191,0.053-0.191,0.159v0.372c0,0.101,0.092,0.132,0.213,0.16
		c0.208,0.052,0.562,0.091,0.843,0.091c1.151,0,1.522-0.402,1.834-1.483l1.655-5.777C129.34,38.079,129.34,38.05,129.34,38.031"/>
	<g>
		<path fill="#666767" d="M131.505,12.432h-0.955v3.16c0,0.025-0.007,0.048-0.023,0.069c-0.017,0.02-0.038,0.029-0.064,0.029h-0.268
			c-0.026,0-0.048-0.009-0.064-0.029c-0.017-0.021-0.022-0.044-0.022-0.069v-3.16h-0.956c-0.026,0-0.05-0.006-0.069-0.02
			c-0.019-0.013-0.029-0.032-0.029-0.057v-0.214c0-0.025,0.011-0.046,0.029-0.062c0.02-0.018,0.043-0.025,0.069-0.025h2.354
			c0.062,0,0.092,0.029,0.092,0.086v0.214C131.597,12.406,131.566,12.432,131.505,12.432z"/>
		<path fill="#666767" d="M135.082,15.661c-0.021,0.02-0.042,0.029-0.068,0.029h-0.236c-0.026,0-0.05-0.009-0.069-0.029
			c-0.02-0.021-0.028-0.044-0.028-0.069v-2.901c0-0.009-0.002-0.015-0.007-0.015c-0.001,0-0.005,0.004-0.007,0.01l-0.704,1.449
			c-0.023,0.049-0.052,0.083-0.082,0.107c-0.028,0.022-0.074,0.034-0.136,0.034h-0.227c-0.063,0-0.108-0.012-0.139-0.034
			c-0.028-0.023-0.055-0.058-0.081-0.107l-0.704-1.449c-0.002-0.006-0.005-0.01-0.007-0.01c-0.004,0-0.005,0.006-0.005,0.015v2.901
			c0,0.025-0.011,0.048-0.03,0.069c-0.019,0.02-0.041,0.029-0.068,0.029h-0.236c-0.026,0-0.049-0.009-0.067-0.029
			c-0.021-0.021-0.028-0.044-0.028-0.069v-3.396c0-0.038,0.014-0.073,0.041-0.1c0.027-0.029,0.06-0.042,0.098-0.042h0.315
			c0.047,0,0.079,0.006,0.101,0.018c0.022,0.011,0.042,0.033,0.057,0.064l0.81,1.68c0.017,0.034,0.035,0.054,0.058,0.054
			s0.043-0.02,0.061-0.054l0.808-1.68c0.018-0.032,0.033-0.053,0.057-0.064c0.021-0.011,0.055-0.018,0.1-0.018h0.316
			c0.038,0,0.069,0.013,0.099,0.042c0.029,0.027,0.04,0.062,0.04,0.1v3.396C135.109,15.617,135.102,15.64,135.082,15.661z"/>
	</g>
</g>
</svg>
