<svg xmlns="http://www.w3.org/2000/svg" viewBox="0 0 75.62 113.63"><defs><style>.cls-1{fill:#fff;}.cls-2{fill:#d8d8d8;}.cls-3{fill:#bcbcbc;}</style></defs><title>Creation Simplified- Scapic White ICon</title><g id="Layer_2" data-name="Layer 2"><g id="Layer_13" data-name="Layer 13"><path class="cls-1" d="M64.92,76.76C53.38,91.52,31,101.65,14.93,99.38S-4.81,83.32,6.73,68.56s33.93-24.89,50-22.63S76.46,62,64.92,76.76Z"/><path class="cls-2" d="M69,52.23h0c4.46,5.88,3.35,15-4.09,24.52C53.38,91.52,31,101.65,14.93,99.38c-7-1-11.64-4.16-13.7-8.64a39.16,39.16,0,0,0,50.27,20c20.06-8.1,28.8-30.56,21.67-51A31.11,31.11,0,0,0,69,52.23Z"/><path class="cls-3" d="M.72,89.44l-.06,0c.16.38.33.74.49,1.11C1,90.21.85,89.83.72,89.44Z"/><path class="cls-1" d="M19.12,24C24.72,14.42,37,6.75,46.59,6.82s12.8,7.86,7.2,17.39-17.9,17.2-27.47,17.13S13.52,33.48,19.12,24Z"/><path class="cls-2" d="M18.64,38.61c-3.07-3.09-3.13-8.51.48-14.66C24.72,14.42,37,6.75,46.59,6.82c4.17,0,7.13,1.52,8.69,4A23.11,23.11,0,0,0,15.63,34.52,39,39,0,0,0,18.64,38.61Z"/></g></g></svg>