<svg xmlns="http://www.w3.org/2000/svg" viewBox="0 0 108.75 77.85"><defs><style>.cls-1,.cls-3{fill:#fff;}.cls-2{fill:#fce0e6;}.cls-3{opacity:0.4;}</style></defs><title>Easy Collaboration</title><g id="Layer_2" data-name="Layer 2"><g id="Layer_13" data-name="Layer 13"><path class="cls-1" d="M40.61,40.55"/><path class="cls-2" d="M40.61,42a1.5,1.5,0,0,0,0-3,1.5,1.5,0,0,0,0,3Z"/><path class="cls-1" d="M66.87,28.23a17,17,0,0,1-5.35-12.11C61.2,7.54,66.64.37,73.66.12s13,6.51,13.27,15.1a17,17,0,0,1-4.47,12.46C91,31.25,97.29,41,97.7,52.5l.47,13.07c.22,6.08-3.63,11.15-8.6,11.33l-26.28.94c-5,.18-9.17-4.6-9.39-10.68l-.47-13.07C53,42.55,58.65,32.41,66.87,28.23Z"/><path class="cls-3" d="M89.58,76.9c5-.18,8.82-5.25,8.6-11.33L97.7,52.5C97.29,41,91,31.25,82.46,27.67a17,17,0,0,0,4.47-12.46c-.28-7.73-5.12-14-11.19-15L83.08.11A10.52,10.52,0,0,1,84.23,0c7-.25,13,6.51,13.27,15.1A17,17,0,0,1,93,27.56c8.5,3.58,14.83,13.28,15.25,24.83l.47,13.07c.22,6.08-3.63,11.15-8.6,11.33Z"/><path class="cls-1" d="M1.45,40.55"/><path class="cls-2" d="M1.45,42a1.5,1.5,0,0,0,0-3,1.5,1.5,0,0,0,0,3Z"/><path class="cls-1" d="M27.71,28.23a17,17,0,0,1-5.35-12.11C22,7.54,27.49.37,34.5.12s13,6.51,13.27,15.1A17,17,0,0,1,43.3,27.67C51.79,31.25,58.13,41,58.55,52.5L59,65.58c.22,6.08-3.63,11.15-8.6,11.33l-26.28.94c-5,.18-9.17-4.6-9.39-10.68l-.47-13.07C13.87,42.55,19.49,32.41,27.71,28.23Z"/><path class="cls-3" d="M50.42,76.9c5-.18,8.82-5.25,8.6-11.33L58.55,52.5C58.13,41,51.79,31.25,43.3,27.67a17,17,0,0,0,4.47-12.46c-.28-7.73-5.12-14-11.19-15L43.93.11A10.52,10.52,0,0,1,45.07,0c7-.25,13,6.51,13.27,15.1a17,17,0,0,1-4.47,12.46c8.5,3.58,14.83,13.28,15.25,24.83l.47,13.07C69.81,71.54,66,76.62,61,76.79Z"/></g></g></svg>