<svg xmlns="http://www.w3.org/2000/svg" xmlns:xlink="http://www.w3.org/1999/xlink" viewBox="0 0 373.42 556.71"><defs><style>.cls-1{fill:url(#linear-gradient);}.cls-2{fill:url(#linear-gradient-2);}.cls-3{fill:#bcbcbc;}.cls-4{fill:url(#linear-gradient-3);}.cls-5{fill:url(#linear-gradient-4);}.cls-6{fill:url(#linear-gradient-5);}.cls-7{fill:url(#linear-gradient-6);}.cls-8{fill:#fdd814;}.cls-9{fill:url(#linear-gradient-7);}.cls-10{fill:url(#linear-gradient-8);}.cls-11{fill:url(#linear-gradient-9);}.cls-12{fill:#5e53a3;}.cls-13{fill:url(#linear-gradient-10);}.cls-14{fill:url(#linear-gradient-11);}.cls-15{fill:url(#linear-gradient-12);}.cls-16{fill:url(#linear-gradient-13);}.cls-17{fill:url(#linear-gradient-14);}.cls-18{fill:url(#linear-gradient-15);}.cls-19{fill:url(#linear-gradient-16);}.cls-20{fill:url(#linear-gradient-17);}.cls-21{fill:url(#linear-gradient-18);}.cls-22{fill:url(#linear-gradient-19);}.cls-23{fill:url(#linear-gradient-20);}.cls-24{fill:url(#linear-gradient-21);}.cls-25{fill:url(#linear-gradient-22);}.cls-26{fill:url(#linear-gradient-23);}.cls-27{fill:url(#linear-gradient-24);}.cls-28{fill:url(#linear-gradient-25);}.cls-29{fill:url(#linear-gradient-26);}.cls-30{fill:url(#linear-gradient-27);}.cls-31{fill:url(#linear-gradient-28);}.cls-32{fill:url(#linear-gradient-29);}.cls-33{fill:url(#linear-gradient-30);}.cls-34{fill:url(#linear-gradient-31);}.cls-35{fill:url(#linear-gradient-32);}.cls-36{fill:url(#linear-gradient-33);}.cls-37{fill:url(#linear-gradient-34);}.cls-38{fill:url(#linear-gradient-35);}</style><linearGradient id="linear-gradient" x1="2.94" y1="355.97" x2="353.97" y2="355.97" gradientUnits="userSpaceOnUse"><stop offset="0" stop-color="#4d5ba9"/><stop offset="1" stop-color="#e80b76"/></linearGradient><linearGradient id="linear-gradient-2" x1="63.06" y1="438.82" x2="395.84" y2="386.44" xlink:href="#linear-gradient"/><linearGradient id="linear-gradient-3" x1="19.51" y1="222.83" x2="281.41" y2="53.36" xlink:href="#linear-gradient"/><linearGradient id="linear-gradient-4" x1="64.73" y1="94.59" x2="273.76" y2="94.59" xlink:href="#linear-gradient"/><linearGradient id="linear-gradient-5" x1="346.4" y1="380.74" x2="379.08" y2="357.18" gradientTransform="matrix(1, -0.03, -0.55, 1.02, -25.13, -167.17)" gradientUnits="userSpaceOnUse"><stop offset="0" stop-color="#774d9f"/><stop offset="1" stop-color="#3c499e"/></linearGradient><linearGradient id="linear-gradient-6" x1="-27.74" y1="458.14" x2="-84.96" y2="559.9" gradientTransform="translate(-28.77 -191.04) rotate(-31.79)" gradientUnits="userSpaceOnUse"><stop offset="0" stop-color="#ed2578"/><stop offset="1" stop-color="#fdd814"/></linearGradient><linearGradient id="linear-gradient-7" x1="-89.4" y1="422.13" x2="-28.64" y2="412.53" xlink:href="#linear-gradient-6"/><linearGradient id="linear-gradient-8" x1="118.45" y1="496.81" x2="151.92" y2="554.8" gradientTransform="translate(-22.57 -238.1) rotate(4.47)" gradientUnits="userSpaceOnUse"><stop offset="0" stop-color="#774d9f"/><stop offset="1" stop-color="#62cdf6"/></linearGradient><linearGradient id="linear-gradient-9" x1="241.46" y1="519.53" x2="108.9" y2="487.91" xlink:href="#linear-gradient-8"/><linearGradient id="linear-gradient-10" x1="129.66" y1="548" x2="147.69" y2="535.01" gradientTransform="translate(-22.57 -238.1) rotate(4.47)" xlink:href="#linear-gradient-5"/><linearGradient id="linear-gradient-11" x1="459.96" y1="800.88" x2="452.97" y2="813.3" gradientTransform="translate(982.11 -191.16) rotate(90)" xlink:href="#linear-gradient-8"/><linearGradient id="linear-gradient-12" x1="-116.93" y1="493.69" x2="-113.28" y2="474.75" gradientTransform="translate(65.87 -113.88) rotate(-43.48)" xlink:href="#linear-gradient-6"/><linearGradient id="linear-gradient-13" x1="-103.15" y1="459.08" x2="-126.74" y2="477.11" gradientTransform="matrix(1, -0.04, 0.04, 1, 398.8, -167.91)" xlink:href="#linear-gradient-6"/><linearGradient id="linear-gradient-14" x1="-125.42" y1="446.84" x2="-102.18" y2="465.23" gradientTransform="translate(390.79 -164.52) rotate(-2.49)" xlink:href="#linear-gradient-6"/><linearGradient id="linear-gradient-15" x1="-84.15" y1="483.19" x2="-79.3" y2="457.95" gradientTransform="translate(65.87 -113.88) rotate(-43.48)" xlink:href="#linear-gradient-6"/><linearGradient id="linear-gradient-16" x1="-101" y1="444.3" x2="-69.63" y2="451.27" gradientTransform="translate(377.32 -184.32) rotate(-2.49)" xlink:href="#linear-gradient-6"/><linearGradient id="linear-gradient-17" x1="-52.13" y1="451.53" x2="-60.26" y2="466" gradientTransform="translate(359.42 -201.13)" xlink:href="#linear-gradient-6"/><linearGradient id="linear-gradient-18" x1="691.32" y1="608.48" x2="761.12" y2="597.46" gradientTransform="matrix(0.85, 0.53, -0.53, 0.85, -40.33, -554.68)" xlink:href="#linear-gradient-8"/><linearGradient id="linear-gradient-19" x1="621.56" y1="608.48" x2="691.36" y2="597.46" gradientTransform="matrix(0.85, 0.53, -0.53, 0.85, -40.33, -554.68)" xlink:href="#linear-gradient-8"/><linearGradient id="linear-gradient-20" x1="687.16" y1="589.32" x2="686.04" y2="619.96" gradientTransform="matrix(0.85, 0.53, -0.53, 0.85, -40.33, -554.68)" xlink:href="#linear-gradient-8"/><linearGradient id="linear-gradient-21" x1="688.24" y1="589.36" x2="687.12" y2="620" gradientTransform="matrix(0.85, 0.53, -0.53, 0.85, -40.33, -554.68)" xlink:href="#linear-gradient-8"/><linearGradient id="linear-gradient-22" x1="644.5" y1="531.89" x2="726.17" y2="518.99" gradientTransform="matrix(0.85, 0.53, -0.53, 0.85, -40.33, -554.68)" xlink:href="#linear-gradient-8"/><linearGradient id="linear-gradient-23" x1="624.61" y1="581.21" x2="744.13" y2="562.34" gradientTransform="matrix(0.85, 0.53, -0.53, 0.85, -40.33, -554.68)" xlink:href="#linear-gradient-8"/><linearGradient id="linear-gradient-24" x1="637.7" y1="588.41" x2="678.13" y2="497.61" gradientTransform="matrix(0.85, 0.53, -0.53, 0.85, -40.33, -554.68)" xlink:href="#linear-gradient-8"/><linearGradient id="linear-gradient-25" x1="659.96" y1="598.32" x2="700.39" y2="507.52" gradientTransform="matrix(0.85, 0.53, -0.53, 0.85, -40.33, -554.68)" xlink:href="#linear-gradient-8"/><linearGradient id="linear-gradient-26" x1="644.6" y1="438.33" x2="711.5" y2="476.35" gradientTransform="matrix(0.85, 0.53, -0.53, 0.85, -40.33, -554.68)" gradientUnits="userSpaceOnUse"><stop offset="0" stop-color="#774d9f"/><stop offset="0.64" stop-color="#6d80bf"/><stop offset="1" stop-color="#62cdf6"/></linearGradient><linearGradient id="linear-gradient-27" x1="703.4" y1="650.97" x2="656.24" y2="583.59" gradientTransform="matrix(0.85, 0.53, -0.53, 0.85, -40.33, -554.68)" xlink:href="#linear-gradient-8"/><linearGradient id="linear-gradient-28" x1="651.55" y1="548.65" x2="678.26" y2="529.4" gradientTransform="matrix(0.85, 0.53, -0.53, 0.85, -40.33, -554.68)" xlink:href="#linear-gradient-5"/><linearGradient id="linear-gradient-29" x1="-357.18" y1="464.31" x2="-353.52" y2="445.29" gradientTransform="translate(65.87 -113.88) rotate(-43.48)" xlink:href="#linear-gradient-6"/><linearGradient id="linear-gradient-30" x1="-369.88" y1="434.99" x2="-346.24" y2="440.25" gradientTransform="translate(445.47 -4.97) rotate(-2.49)" xlink:href="#linear-gradient-6"/><linearGradient id="linear-gradient-31" x1="-326.65" y1="458.34" x2="-332.78" y2="469.24" gradientTransform="translate(430.2 -22.89)" xlink:href="#linear-gradient-6"/><linearGradient id="linear-gradient-32" x1="-383.77" y1="438.06" x2="-378.87" y2="412.61" gradientTransform="translate(65.87 -113.88) rotate(-43.48)" xlink:href="#linear-gradient-6"/><linearGradient id="linear-gradient-33" x1="-400.75" y1="398.84" x2="-369.13" y2="405.87" gradientTransform="translate(429.94 21.24) rotate(-2.49)" xlink:href="#linear-gradient-6"/><linearGradient id="linear-gradient-34" x1="-353.39" y1="418.97" x2="-361.59" y2="433.55" gradientTransform="translate(411.96 4.47)" xlink:href="#linear-gradient-6"/><linearGradient id="linear-gradient-35" x1="-353.2" y1="291.19" x2="-329.15" y2="318.48" gradientTransform="translate(354.04 26.13) rotate(-2.49)" xlink:href="#linear-gradient-8"/></defs><title>Illlustration - Creation Simplified</title><g id="Layer_2" data-name="Layer 2"><g id="Layer_13" data-name="Layer 13"><path class="cls-1" d="M321,376.06C264.45,448.38,154.79,498,76.07,486.91s-96.7-78.72-40.15-151S202.12,213.93,280.84,225,377.54,303.75,321,376.06Z"/><path class="cls-2" d="M341.09,255.87l0,.05c21.84,28.83,16.42,73.5-20.06,120.14C264.45,448.38,154.79,498,76.07,486.91c-34.27-4.83-57-20.38-67.12-42.35,42.39,92.82,150.7,136.74,246.27,98.17C353.51,503.06,396.33,393,361.37,292.92,356.37,278.59,349,267.3,341.09,255.87Z"/><path class="cls-3" d="M6.46,438.2l-.29.11c.77,1.84,1.6,3.63,2.42,5.44C7.78,441.94,7.09,440.09,6.46,438.2Z"/><path class="cls-4" d="M96.63,117.35c27.43-46.7,87.68-84.27,134.58-83.92s62.69,38.49,35.26,85.19-87.68,84.27-134.58,83.92S69.2,164,96.63,117.35Z"/><path class="cls-5" d="M94.27,189.17c-15-15.15-15.33-41.7,2.36-71.82,27.43-46.7,87.68-84.27,134.58-83.92,20.41.15,34.93,7.47,42.55,19.53A113.2,113.2,0,0,0,79.5,169.12C83.71,176.55,94.27,189.17,94.27,189.17Z"/><path class="cls-6" d="M158.18,192.85c-4.7,8.77-15.49,16.09-24.11,16.36s-11.78-6.62-7.08-15.39,15.49-16.09,24.11-16.36S162.88,184.08,158.18,192.85Z"/><path class="cls-7" d="M258.58,208.24v0l-.09-.06a30.4,30.4,0,0,0-10.75-7.66h0l-18.27-6.19a18.4,18.4,0,0,0-8.64-.77L195,197.41a18.4,18.4,0,0,1-12.39-2.53l-24.27-15h0c2.6,2.73,2.72,7.46-.21,12.92-4.7,8.77-15.49,16.09-24.11,16.36-5.23.16-8.44-2.33-9.11-6.26h0l1.46,29.34a18.4,18.4,0,0,1-.24,4l-9.7,56.33h0c-2.59,23.4,11.73,39.27,38.76,38.42C191.59,329.95,237.16,299,257,262,269.11,239.46,268.84,219.86,258.58,208.24Z"/><path class="cls-8" d="M158.18,192.85c-4.7,8.77-15.49,16.09-24.11,16.36s-11.78-6.62-7.08-15.39,15.49-16.09,24.11-16.36S162.88,184.08,158.18,192.85Z"/><path class="cls-9" d="M153.57,193c-3.31,6.17-10.91,11.33-17,11.52s-8.29-4.66-5-10.83,10.91-11.33,17-11.52S156.88,186.82,153.57,193Z"/><polygon class="cls-10" points="59.03 271.19 55.06 322.06 97.12 350.94 101.1 300.07 59.03 271.19"/><polygon class="cls-11" points="59.03 271.19 105.02 249.15 147.14 278.08 101.1 300.07 59.03 271.19"/><polygon class="cls-12" points="101.1 300.07 97.12 350.94 143.16 328.95 147.14 278.08 101.1 300.07"/><path class="cls-13" d="M85.16,317.08c-.54,6.93-5,9.78-10,6.37s-8.54-11.78-8-18.71,5-9.78,10-6.37S85.7,310.15,85.16,317.08Z"/><circle class="cls-14" cx="176.86" cy="266.34" r="9.21" transform="translate(-101.19 424.15) rotate(-85.99)"/><path class="cls-15" d="M312.38,309.58l-4.59,1.28,9.75,10.28h0a.92.92,0,0,0,.8.12,3.3,3.3,0,0,0,2.07-2.13,1.16,1.16,0,0,0-.19-1.24h0Z"/><circle class="cls-16" cx="304.6" cy="304.44" r="13.19" transform="translate(-125.01 274.45) rotate(-40.99)"/><circle class="cls-17" cx="296.06" cy="295.43" r="8.05" transform="translate(-121.19 266.63) rotate(-40.99)"/><path class="cls-18" d="M326.17,274.35l-6.11,1.7,13,13.69h0a1.23,1.23,0,0,0,1.07.16,4.4,4.4,0,0,0,2.76-2.84,1.54,1.54,0,0,0-.26-1.66h0Z"/><circle class="cls-19" cx="315.81" cy="267.5" r="17.57" transform="translate(-98.03 272.74) rotate(-40.99)"/><circle class="cls-20" cx="304.43" cy="255.5" r="10.72" transform="translate(-92.95 262.33) rotate(-40.99)"/><path class="cls-21" d="M285.86,325.63A16.75,16.75,0,1,0,257.4,308c-.15.24-.23.5-.36.74h-.1l-.62,1.47c-.17.39-.36.78-.5,1.18l-23.94,56.75a6.72,6.72,0,1,0,11.42,7.09l39.55-46.07A16.57,16.57,0,0,0,285.86,325.63Z"/><path class="cls-22" d="M226.58,288.85a16.75,16.75,0,1,0-28.46-17.66c-.15.24-.23.5-.36.74h-.1L197,273.4c-.17.39-.36.78-.5,1.18L172.6,331.33A6.72,6.72,0,1,0,184,338.42l39.55-46.07A16.57,16.57,0,0,0,226.58,288.85Z"/><path class="cls-23" d="M256.39,290.72c-7-.22-15-4.73-17.83-10.06s.49-9.48,7.47-9.26,15,4.73,17.83,10.06S263.38,290.94,256.39,290.72Z"/><path class="cls-24" d="M264.79,286.09h0c-.57,2.9-3.63,4.78-8.4,4.63-7-.22-15-4.73-17.83-10.06-1.67-3.11-1.21-5.82.84-7.49h0s-26.33,15-34.88,56.11h0a6.83,6.83,0,0,0,.87,4.84c2.86,5.34,10.84,9.84,17.83,10.06a11.43,11.43,0,0,0,5.42-1h0S254.27,330.54,264.79,286.09Z"/><path class="cls-25" d="M274.69,267.3c-9.41-.3-20.16-6.37-24-13.56s.66-12.77,10.07-12.47,20.16,6.37,24,13.56S284.1,267.6,274.69,267.3Z"/><path class="cls-26" d="M286,261.07h0c-.76,3.91-4.89,6.44-11.31,6.24-9.41-.3-20.16-6.37-24-13.56-2.25-4.2-1.63-7.83,1.13-10.09h0s-35.47,20.16-47,75.59h0a9.2,9.2,0,0,0,1.17,6.52c3.85,7.19,14.6,13.26,24,13.56a15.39,15.39,0,0,0,7.3-1.33h0S271.83,320.94,286,261.07Z"/><path class="cls-27" d="M302.46,231c-13.27-.42-28.42-9-33.85-19.11s.93-18,14.19-17.58,28.42,9,33.85,19.11S315.73,231.47,302.46,231Z"/><path class="cls-28" d="M318.41,222.26h0c-1.08,5.51-6.9,9.08-15.94,8.79-13.27-.42-28.42-9-33.85-19.11-3.17-5.91-2.3-11,1.59-14.22h0s-50,28.42-66.22,106.54l0,0c-.65,2.66-.18,5.79,1.64,9.19,5.43,10.13,20.58,18.69,33.85,19.11a21.7,21.7,0,0,0,10.29-1.87h0S298.43,306.64,318.41,222.26Z"/><path class="cls-29" d="M318.4,222.26h0v-.05a9.94,9.94,0,0,0,.17-1.8l4.19-44.91-.18-.08a2.9,2.9,0,0,0-.37-1.8c-1.18-2.2-4.48-4.07-7.37-4.16a3.87,3.87,0,0,0-2.87.87l-.08,0-39.63,26.08c-5.6,2.92-7.33,8.73-3.66,15.58C274,222.07,289.2,230.62,302.46,231,311.5,231.33,317.32,227.76,318.4,222.26Z"/><path class="cls-30" d="M239.23,330.2a16.75,16.75,0,1,0-28.46-17.66c-.15.24-.23.5-.36.74h-.1l-.62,1.47c-.17.39-.36.78-.5,1.18l-23.94,56.75a6.72,6.72,0,1,0,11.42,7.09l39.55-46.07A16.57,16.57,0,0,0,239.23,330.2Z"/><path class="cls-31" d="M252.79,267.79c-5.43,8.74-13.24,9.46-17.44,1.61s-3.22-21.31,2.2-30.06,13.24-9.46,17.44-1.61S258.22,259.05,252.79,267.79Z"/><path class="cls-32" d="M117.79,453.51l-4.61,1.28L123,465.11h0a.93.93,0,0,0,.8.12,3.31,3.31,0,0,0,2.08-2.14,1.16,1.16,0,0,0-.19-1.25h0Z"/><circle class="cls-33" cx="109.98" cy="448.35" r="13.25" transform="translate(-267.12 182.07) rotate(-40.99)"/><circle class="cls-34" cx="101.4" cy="439.3" r="8.08" transform="translate(-263.29 174.22) rotate(-40.99)"/><path class="cls-35" d="M77.61,447.59l-6.17,1.72,13.09,13.81h0a1.24,1.24,0,0,0,1.08.16,4.43,4.43,0,0,0,2.78-2.86,1.56,1.56,0,0,0-.26-1.67h0Z"/><circle class="cls-36" cx="67.16" cy="440.68" r="17.72" transform="translate(-272.59 152.1) rotate(-40.99)"/><circle class="cls-37" cx="55.68" cy="428.57" r="10.81" transform="translate(-267.46 141.61) rotate(-40.99)"/><circle class="cls-38" cx="22.68" cy="341.6" r="22.68" transform="translate(-218.51 98.63) rotate(-40.99)"/></g></g></svg>