<svg xmlns="http://www.w3.org/2000/svg" viewBox="0 0 3148.49 489.16"><defs><style>.cls-1{fill:#fff;}</style></defs><title>Mountains</title><g id="Layer_2" data-name="Layer 2"><g id="Layer_13" data-name="Layer 13"><path class="cls-1" d="M0,489.15S462.2,177.21,549,153.22s239.48,144,403.11,228,289.32-120,382.46-180c64.8-41.74,145.77,6.8,198.63,46.24,48.29,36,101.79,119.43,161.72,130.83,80.12,15.23,144.44-72.68,195.67-120.25,62.2-57.75,122.83-117.15,183.47-176.52,49.22-48.19,103.36-111.85,177.23-65.24,107.14,67.6,187.72,168.89,279,256.72,26.18,25.19,55.26,50.34,91,57.1,42.64,8.07,86-12.1,120-39.07s62-60.93,96.2-87.63c14.41-11.24,30.83-21.48,49.08-22.36,30.26-1.45,55.15,22.45,75.2,45.16a1524.92,1524.92,0,0,1,186.74,263c-9.75-14.63-157.6,0-179.91,0H0Z"/></g></g></svg>