<svg xmlns="http://www.w3.org/2000/svg" viewBox="0 0 109.75 64.33"><defs><style>.cls-1,.cls-2{fill:#fff;}.cls-2{opacity:0.4;}</style></defs><title>No Downloads</title><g id="Layer_2" data-name="Layer 2"><g id="Layer_13" data-name="Layer 13"><path class="cls-1" d="M93.12,19.41C89.62,8.2,77.58,0,63.28,0,50.88,0,40.22,6.3,35.37,15.3a26.15,26.15,0,0,0-8.92-1.52c-12.56,0-22.71,8.72-22.68,19.4S14,52.47,26.56,52.43l63.78-.2c10.72,0,19.39-7.45,19.36-16.56C109.67,27.4,102.48,20.57,93.12,19.41Z"/><path class="cls-2" d="M109.75,37.77l-.19,0c-1.17,8.14-9.32,14.46-19.21,14.49l-63.78.2C14,52.47,3.8,43.85,3.77,33.18a16.66,16.66,0,0,1,1-5.65h0L.22,41.74l.08.12A16.61,16.61,0,0,0,0,45.07C0,55.75,10.24,64.37,22.8,64.33l63.78-.2c9.12,0,16.76-5.4,18.81-12.62h0Z"/></g></g></svg>