<svg xmlns="http://www.w3.org/2000/svg" xmlns:xlink="http://www.w3.org/1999/xlink" viewBox="0 0 190.45 179.09"><defs><style>.cls-1{fill:url(#linear-gradient);}.cls-2{fill:url(#linear-gradient-2);}.cls-3{fill:url(#linear-gradient-3);}.cls-4{fill:url(#linear-gradient-4);}.cls-5{fill:url(#linear-gradient-5);}.cls-6{fill:url(#linear-gradient-6);}.cls-7{fill:url(#linear-gradient-7);}.cls-8{fill:url(#linear-gradient-8);}.cls-9{fill:url(#linear-gradient-9);}.cls-10{fill:url(#linear-gradient-10);}.cls-11{fill:url(#linear-gradient-11);}</style><linearGradient id="linear-gradient" x1="1323.81" y1="-365.15" x2="1393.61" y2="-376.17" gradientTransform="matrix(0.67, 0.75, -0.75, 0.67, -1098.91, -618.32)" gradientUnits="userSpaceOnUse"><stop offset="0" stop-color="#774d9f"/><stop offset="1" stop-color="#62cdf6"/></linearGradient><linearGradient id="linear-gradient-2" x1="1254.05" y1="-365.15" x2="1323.85" y2="-376.17" xlink:href="#linear-gradient"/><linearGradient id="linear-gradient-3" x1="1319.65" y1="-384.31" x2="1318.53" y2="-353.67" xlink:href="#linear-gradient"/><linearGradient id="linear-gradient-4" x1="1320.73" y1="-384.27" x2="1319.61" y2="-353.63" xlink:href="#linear-gradient"/><linearGradient id="linear-gradient-5" x1="1276.99" y1="-441.74" x2="1358.66" y2="-454.64" xlink:href="#linear-gradient"/><linearGradient id="linear-gradient-6" x1="1257.09" y1="-392.42" x2="1376.62" y2="-411.29" xlink:href="#linear-gradient"/><linearGradient id="linear-gradient-7" x1="1270.19" y1="-385.22" x2="1310.62" y2="-476.02" xlink:href="#linear-gradient"/><linearGradient id="linear-gradient-8" x1="1292.45" y1="-375.31" x2="1332.88" y2="-466.11" xlink:href="#linear-gradient"/><linearGradient id="linear-gradient-9" x1="1277.09" y1="-535.3" x2="1343.99" y2="-497.27" gradientTransform="matrix(0.67, 0.75, -0.75, 0.67, -1098.91, -618.32)" gradientUnits="userSpaceOnUse"><stop offset="0" stop-color="#774d9f"/><stop offset="0.64" stop-color="#6d80bf"/><stop offset="1" stop-color="#62cdf6"/></linearGradient><linearGradient id="linear-gradient-10" x1="1335.89" y1="-322.66" x2="1288.73" y2="-390.04" xlink:href="#linear-gradient"/><linearGradient id="linear-gradient-11" x1="1284.04" y1="-424.98" x2="1310.75" y2="-444.23" gradientTransform="matrix(0.67, 0.75, -0.75, 0.67, -1098.91, -618.32)" gradientUnits="userSpaceOnUse"><stop offset="0" stop-color="#774d9f"/><stop offset="1" stop-color="#3c499e"/></linearGradient></defs><title>Rocket -hero</title><g id="Layer_2" data-name="Layer 2"><g id="Layer_13" data-name="Layer 13"><path class="cls-1" d="M112.49,141.88a16.75,16.75,0,1,0-22.3-25c-.21.19-.36.41-.56.61l-.1,0-1,1.23c-.27.33-.56.64-.81,1l-39,47.66a6.72,6.72,0,1,0,9,10l51-33A16.57,16.57,0,0,0,112.49,141.88Z"/><path class="cls-2" d="M66,89.84a16.75,16.75,0,1,0-22.3-25c-.21.19-.36.41-.56.61l-.1,0-1,1.23c-.27.33-.56.64-.81,1l-39,47.66a6.72,6.72,0,1,0,9,10l51-33A16.57,16.57,0,0,0,66,89.84Z"/><path class="cls-3" d="M94.1,100.06c-6.64-2.19-13-8.77-14.25-14.7s3.15-9,9.79-6.77,13,8.77,14.25,14.7S100.74,102.25,94.1,100.06Z"/><path class="cls-4" d="M103.46,98h0c-1.36,2.62-4.84,3.56-9.36,2.07-6.64-2.19-13-8.77-14.25-14.7-.72-3.46.48-5.92,2.92-6.94h0s-29.49,6.91-49.33,44h0a6.83,6.83,0,0,0-.54,4.89c1.23,5.93,7.61,12.51,14.25,14.7a11.43,11.43,0,0,0,5.48.59h0S80.8,137.65,103.46,98Z"/><path class="cls-5" d="M118.27,82.78C109.33,79.83,100.74,71,99.08,63s4.24-12.07,13.19-9.12,17.54,11.81,19.2,19.8S127.22,85.73,118.27,82.78Z"/><path class="cls-6" d="M130.89,80h0c-1.84,3.53-6.52,4.8-12.61,2.78C109.33,79.83,100.74,71,99.08,63c-1-4.66.65-8,3.94-9.36h0s-39.73,9.31-66.45,59.21v0a9.2,9.2,0,0,0-.73,6.58c1.66,8,10.26,16.85,19.2,19.8a15.39,15.39,0,0,0,7.38.79h0S100.36,133.42,130.89,80Z"/><path class="cls-7" d="M155.17,55.86c-12.6-4.16-24.72-16.65-27.06-27.9s6-17,18.58-12.85S171.42,31.76,173.76,43,167.78,60,155.17,55.86Z"/><path class="cls-8" d="M173,51.94h0c-2.59,5-9.18,6.76-17.78,3.93-12.6-4.16-24.72-16.65-27.06-27.9-1.37-6.57.92-11.24,5.55-13.19h0S77.64,27.87,40,98.21l0,0c-1.37,2.37-1.81,5.51-1,9.28,2.34,11.25,14.46,23.75,27.06,27.9a21.7,21.7,0,0,0,10.4,1.12h0S129.92,127.23,173,51.94Z"/><path class="cls-9" d="M172.95,51.94h0l0,0a9.94,9.94,0,0,0,.67-1.68L190.36,8.32l-.14-.13a2.9,2.9,0,0,0,.15-1.84c-.51-2.45-3.15-5.17-5.89-6.07a3.87,3.87,0,0,0-3,0l-.07-.06L136,14.05c-6.19,1.22-9.5,6.3-7.92,13.91,2.34,11.25,14.46,23.75,27.06,27.9C163.76,58.69,170.35,56.92,172.95,51.94Z"/><path class="cls-10" d="M66.48,133.07a16.75,16.75,0,1,0-22.3-25c-.21.19-.36.41-.56.61l-.1,0-1,1.23c-.27.33-.56.64-.81,1l-39,47.66a6.72,6.72,0,1,0,9,10l51-33A16.57,16.57,0,0,0,66.48,133.07Z"/><path class="cls-11" d="M97.13,77.06c-7.68,6.85-15.37,5.33-17.19-3.39s2.94-21.35,10.62-28.21,15.37-5.33,17.19,3.39S104.81,70.2,97.13,77.06Z"/></g></g></svg>