<svg xmlns="http://www.w3.org/2000/svg" viewBox="0 0 681.78 273.91"><defs><style>.cls-1{fill:#fff;}.cls-2{fill:#d8d8d8;}.cls-3{fill:red;}</style></defs><title>Scapic Logo White</title><g id="Layer_2" data-name="Layer 2"><g id="Layer_13" data-name="Layer 13"><path class="cls-1" d="M156.49,185C128.67,220.61,74.71,245,36,239.57s-47.58-38.73-19.76-74.31,81.78-60,120.51-54.54S184.31,149.45,156.49,185Z"/><path class="cls-2" d="M166.38,125.89l0,0c10.75,14.18,8.08,36.16-9.87,59.11C128.67,220.61,74.71,245,36,239.57c-16.86-2.38-28.05-10-33-20.84A94.4,94.4,0,0,0,124.13,267c48.36-19.52,69.43-73.67,52.23-122.91C173.9,137.07,170.26,131.52,166.38,125.89Z"/><path class="cls-3" d="M1.73,215.6l-.14.05c.38.91.79,1.79,1.19,2.68C2.38,217.44,2,216.53,1.73,215.6Z"/><path class="cls-1" d="M46.1,57.74c13.49-23,43.14-41.46,66.22-41.29s30.84,18.94,17.35,41.91S86.52,99.82,63.45,99.65,32.6,80.72,46.1,57.74Z"/><path class="cls-2" d="M44.94,93.08c-7.39-7.46-7.54-20.52,1.16-35.34,13.49-23,43.14-41.46,66.22-41.29,10,.07,17.18,3.67,20.94,9.61A55.7,55.7,0,0,0,37.67,83.21,94.13,94.13,0,0,0,44.94,93.08Z"/><path class="cls-1" d="M233.56,170.92a9.08,9.08,0,0,1-4.35-7.79,8.83,8.83,0,0,1,9-9,8.74,8.74,0,0,1,4.5,1.2c7.64,4.8,15.29,7.19,21.73,7.19,6.59,0,9.59-2.4,9.59-6v-.3c0-4.95-7.79-6.59-16.63-9.29-11.24-3.3-24-8.54-24-24.13v-.3c0-16.33,13.19-25.47,29.37-25.47a56.48,56.48,0,0,1,24.88,6.14,9.28,9.28,0,0,1,5.4,8.54,9,9,0,0,1-9.14,9,8.32,8.32,0,0,1-4.2-1c-6.44-3.15-12.59-5.09-17.38-5.09-5.54,0-8.39,2.4-8.39,5.54v.3c0,4.5,7.64,6.59,16.33,9.59,11.24,3.75,24.28,9.14,24.28,23.83v.3c0,17.83-13.34,25.92-30.72,25.92A56,56,0,0,1,233.56,170.92Z"/><path class="cls-1" d="M303.09,138.85v-.3c0-22.93,17.53-41.81,42.11-41.81,12.14,0,20.68,3.3,27.42,9a10.1,10.1,0,0,1,3.6,7.79,10.23,10.23,0,0,1-10.34,10.19,10.72,10.72,0,0,1-6.59-2.25,21.71,21.71,0,0,0-14.24-5.09c-11.39,0-19.48,10-19.48,21.88v.3c0,12.29,7.94,22.18,20.38,22.18,6,0,10.64-2.1,15-5.54a10.59,10.59,0,0,1,6.14-2.1A9.66,9.66,0,0,1,373.37,170c-6.74,6.14-15.29,10.34-28.47,10.34C320.77,180.36,303.09,161.78,303.09,138.85Z"/><path class="cls-1" d="M383.87,155.49v-.3c0-17.53,13.34-25.63,32.37-25.63a57.07,57.07,0,0,1,19.63,3.3v-1.35c0-9.44-5.84-14.69-17.23-14.69a52.25,52.25,0,0,0-15.74,2.25,9.62,9.62,0,0,1-3.3.6,9.28,9.28,0,0,1-9.44-9.29,9.44,9.44,0,0,1,6.14-8.84c7.19-2.7,15-4.2,25.63-4.2,12.44,0,21.43,3.3,27.12,9,6,6,8.69,14.84,8.69,25.62v36.56a10.94,10.94,0,0,1-11.09,10.94c-6.59,0-10.94-4.64-10.94-9.44v-.15c-5.54,6.14-13.19,10.19-24.28,10.19C396.3,180.06,383.87,171.37,383.87,155.49Zm52.3-5.24v-4a35.31,35.31,0,0,0-14.54-3c-9.74,0-15.74,3.9-15.74,11.09v.3c0,6.14,5.1,9.74,12.44,9.74C429,164.33,436.17,158.48,436.17,150.24Z"/><path class="cls-1" d="M473.48,108.73a11.39,11.39,0,1,1,22.78,0v1c5.54-7.49,13.19-13,25-13,18.73,0,36.56,14.69,36.56,41.51v.3c0,26.82-17.53,41.51-36.56,41.51-12.14,0-19.63-5.54-25-12v24a11.39,11.39,0,0,1-22.78,0Zm61.59,29.82v-.3c0-13.34-9-22.18-19.63-22.18S496,124.91,496,138.25v.3c0,13.34,8.84,22.18,19.48,22.18S535.07,152,535.07,138.55Z"/><path class="cls-1" d="M570.44,79.06c0-6.59,5.54-10.64,12.74-10.64s12.74,4,12.74,10.64v.3c0,6.59-5.54,10.79-12.74,10.79S570.44,86,570.44,79.36Zm1.35,29.67a11.39,11.39,0,1,1,22.78,0v59.34a11.39,11.39,0,0,1-22.78,0Z"/><path class="cls-1" d="M608.2,138.85v-.3c0-22.93,17.53-41.81,42.11-41.81,12.14,0,20.68,3.3,27.42,9a10.1,10.1,0,0,1,3.6,7.79A10.23,10.23,0,0,1,671,123.72a10.72,10.72,0,0,1-6.59-2.25,21.71,21.71,0,0,0-14.24-5.09c-11.39,0-19.48,10-19.48,21.88v.3c0,12.29,7.94,22.18,20.38,22.18,6,0,10.64-2.1,15-5.54a10.59,10.59,0,0,1,6.14-2.1A9.66,9.66,0,0,1,678.48,170c-6.74,6.14-15.29,10.34-28.47,10.34C625.88,180.36,608.2,161.78,608.2,138.85Z"/></g></g></svg>