<svg xmlns="http://www.w3.org/2000/svg" viewBox="0 0 152.04 139.54"><defs><style>.cls-1,.cls-2{fill:#fff;}.cls-2{opacity:0.4;}</style></defs><title>Works Everywhere</title><g id="Layer_2" data-name="Layer 2"><g id="Layer_13" data-name="Layer 13"><path class="cls-1" d="M151,109.56l0,0h0Z"/><path class="cls-1" d="M12.59,10.91h0l0,0Z"/><path class="cls-2" d="M149.37,112.22A12.31,12.31,0,0,1,141,116.9l-50.9,5.89a23,23,0,0,1-21.94-10.35L12.07,25.2a12.37,12.37,0,0,1-.72-12.26L2.45,27.51l0,.06A12.42,12.42,0,0,0,2,41.8L58.09,129A23,23,0,0,0,80,139.39l50.9-5.89a12.33,12.33,0,0,0,9.16-5.8h0Z"/><path class="cls-2" d="M122.6,93.92,80.84,98.75a18.85,18.85,0,0,1-18-8.49L23.45,29a10.23,10.23,0,0,1,7.42-15.72L72.63,8.46a18.85,18.85,0,0,1,18,8.49L130,78.2A10.23,10.23,0,0,1,122.6,93.92Z"/><ellipse class="cls-2" cx="110.56" cy="108.66" rx="5.45" ry="6.62" transform="translate(-39.67 146.88) rotate(-58.78)"/><path class="cls-1" d="M150,97.74,94,10.5A23,23,0,0,0,72,.15L21.11,6a12.47,12.47,0,0,0-9,19.16l56.08,87.24a23,23,0,0,0,21.94,10.35L141,116.9A12.47,12.47,0,0,0,150,97.74Zm-33.81,14.34c-1.56,2.57-5.36,3.12-8.48,1.23s-4.39-5.52-2.83-8.09,5.36-3.12,8.48-1.23S117.78,109.51,116.22,112.09Zm6.38-18.16L80.84,98.75a18.85,18.85,0,0,1-18-8.49L23.45,29a10.23,10.23,0,0,1,7.42-15.72L72.63,8.46a18.85,18.85,0,0,1,18,8.49L130,78.2A10.23,10.23,0,0,1,122.6,93.92Z"/></g></g></svg>