<svg xmlns="http://www.w3.org/2000/svg" viewBox="0 0 24.31 25.21"><defs><style>.cls-1{fill:#fff;}.cls-2{opacity:0.4;}</style></defs><title>Close</title><g id="Layer_2" data-name="Layer 2"><g id="Layer_1-2" data-name="Layer 1"><path class="cls-1" d="M23.61,8.21,22.38,5.48a1.27,1.27,0,0,0-1.67-.63L13.25,8.21,9.88.74A1.27,1.27,0,0,0,8.21.11L5.48,1.34A1.27,1.27,0,0,0,4.85,3l3.36,7.46L.74,13.84a1.27,1.27,0,0,0-.63,1.67l1.23,2.73A1.27,1.27,0,0,0,3,18.88l7.46-3.36L13.84,23a1.27,1.27,0,0,0,1.67.63l2.73-1.23a1.27,1.27,0,0,0,.63-1.67l-3.36-7.46L23,9.88A1.27,1.27,0,0,0,23.61,8.21Z"/><g class="cls-2"><path class="cls-1" d="M5.33,4.08a1.24,1.24,0,0,0,.1.42l2.71,6,.07,0Z"/><path class="cls-1" d="M19,21.13a1.26,1.26,0,0,1-.74,1.25l-2.73,1.23A1.27,1.27,0,0,1,13.84,23l-3.36-7.46L3,18.88a1.27,1.27,0,0,1-1.67-.63L.59,16.58a1.24,1.24,0,0,0,.1.42l1.23,2.73a1.27,1.27,0,0,0,1.67.63L11.06,17l3.36,7.46a1.27,1.27,0,0,0,1.67.63l2.73-1.23a1.27,1.27,0,0,0,.63-1.67Z"/><path class="cls-1" d="M24.19,9.7l-.48-1.07A1.26,1.26,0,0,1,23,9.88l-7.46,3.36.65,1.45,7.39-3.33A1.27,1.27,0,0,0,24.19,9.7Z"/></g></g></g></svg>